<svg width="80" height="80" viewBox="0 0 80 80" fill="none" xmlns="http://www.w3.org/2000/svg">
<rect x="0.5" y="0.5" width="79" height="79" rx="39.5" fill="white" fill-opacity="0.3"/>
<rect x="0.5" y="0.5" width="79" height="79" rx="39.5" stroke="white"/>
<path d="M55.3536 40.3536C55.5488 40.1583 55.5488 39.8417 55.3536 39.6464L52.1716 36.4645C51.9763 36.2692 51.6597 36.2692 51.4645 36.4645C51.2692 36.6597 51.2692 36.9763 51.4645 37.1716L54.2929 40L51.4645 42.8284C51.2692 43.0237 51.2692 43.3403 51.4645 43.5355C51.6597 43.7308 51.9763 43.7308 52.1716 43.5355L55.3536 40.3536ZM25 40V40.5H55V40V39.5H25V40Z" fill="white"/>
</svg>
