<svg width="80" height="80" viewBox="0 0 80 80" fill="none" xmlns="http://www.w3.org/2000/svg">
<rect x="0.5" y="0.5" width="79" height="79" rx="39.5" fill="white" fill-opacity="0.3"/>
<rect x="0.5" y="0.5" width="79" height="79" rx="39.5" stroke="white"/>
<path d="M24.6464 39.6464C24.4512 39.8417 24.4512 40.1583 24.6464 40.3536L27.8284 43.5355C28.0237 43.7308 28.3403 43.7308 28.5355 43.5355C28.7308 43.3403 28.7308 43.0237 28.5355 42.8284L25.7071 40L28.5355 37.1716C28.7308 36.9763 28.7308 36.6597 28.5355 36.4645C28.3403 36.2692 28.0237 36.2692 27.8284 36.4645L24.6464 39.6464ZM25 40V40.5H55V40V39.5H25V40Z" fill="white"/>
</svg>
